<svg width="340" height="40" viewBox="0 0 340 40" fill="none" xmlns="http://www.w3.org/2000/svg">
<path d="M30.3427 0.542358H8.57269C3.83812 0.542358 0 4.38048 0 9.11505V30.8851C0 35.6196 3.83812 39.4577 8.57269 39.4577H30.3427C35.0773 39.4577 38.9154 35.6196 38.9154 30.8851V9.11505C38.9154 4.38048 35.0773 0.542358 30.3427 0.542358Z" fill="#E55908"/>
<path d="M24.0012 31.2294V13.446C24.007 12.9256 23.86 12.4149 23.5784 11.9772C23.2968 11.5396 22.8929 11.1942 22.4168 10.9838L9.53641 5.57986L16.6275 13.0521C17.1046 13.5578 17.3684 14.228 17.364 14.9233V33.2463C17.364 35.5671 14.7263 36.7661 13.1205 35.1775L8.41022 30.5229C8.15219 30.2703 7.94758 29.9684 7.80854 29.6352C7.66951 29.302 7.5989 28.9442 7.60091 28.5831V7.89217C7.59008 7.55228 7.64683 7.21361 7.76788 6.89581C7.88893 6.57801 8.07186 6.28741 8.30608 6.04084C8.54029 5.79428 8.82112 5.59667 9.13229 5.45947C9.44345 5.32227 9.77876 5.24821 10.1188 5.24158H28.7843C29.125 5.24708 29.4612 5.32032 29.7734 5.45703C30.0856 5.59373 30.3674 5.79117 30.6025 6.03784C30.8376 6.28452 31.0213 6.5755 31.1429 6.89386C31.2645 7.21221 31.3215 7.55157 31.3107 7.89217V28.5831C31.3209 28.9226 31.2638 29.2609 31.1425 29.5782C31.0211 29.8955 30.8381 30.1855 30.604 30.4317C30.3698 30.6778 30.0892 30.875 29.7783 31.0119C29.4674 31.1488 29.1325 31.2228 28.7928 31.2294H24.0012Z" fill="white"/>
<path d="M340 29.6974H335.961L328.047 19.5128L335.538 10.2824H339.338L332.03 19.2047L340 29.6974ZM328.034 10.2824V29.6974H324.897V10.2824H328.034ZM310.444 10.2824V29.6974H307.307V10.2824H310.444ZM314.427 19.2047L322.401 29.6974H318.363L310.444 19.5128L317.935 10.2824H321.734L314.427 19.2047ZM297.584 26.7319H294.234V20.5911H297.584C299.576 20.5911 300.849 21.6823 300.849 23.5567C300.849 25.431 299.567 26.719 297.584 26.719M297.982 17.7326H294.234V13.3592H302.781V10.2824H291.114V29.6974H297.994C301.687 29.6974 304.08 27.1298 304.08 23.5695C304.08 19.8209 301.58 17.724 297.994 17.724M270.096 22.5339L272.729 16.8853L275.331 22.5339H270.096ZM263.481 29.6974H266.801L268.767 25.4438H276.66L278.626 29.6974H282.045L272.797 10.0128L263.481 29.6974ZM265.976 13.4362H257.609V29.7188H254.472V10.2824H265.976V13.4362ZM237.681 22.7308L250.01 10V29.6845H246.903V17.1677L234.574 29.9499V10.2653H237.681V22.7308ZM226.975 10.2824H230.112V29.6974H226.975V21.3015H217.821V29.6974H214.684V10.2824H217.821V18.1434H226.988L226.975 10.2824ZM204.205 19.2047L212.176 29.6974H208.137L200.218 19.5128L207.71 10.2824H211.513L204.205 19.2047ZM200.218 10.2824V29.6974H197.081V10.2824H200.218ZM183.123 13.3892V19.5984H179.88C177.807 19.5984 176.461 18.3659 176.461 16.4916C176.461 14.6173 177.628 13.3892 179.88 13.3892H183.123ZM173.239 16.4916C173.204 17.6288 173.502 18.7514 174.096 19.7209C174.691 20.6905 175.556 21.4645 176.585 21.9477L171.922 29.6974H175.589L179.76 22.6452H183.111V29.6974H186.243V10.2824H179.679C175.905 10.2824 173.226 12.5205 173.226 16.4916M159.781 22.5339L162.409 16.8853L165.016 22.5339H159.781ZM153.165 29.6974H156.486L158.452 25.4438H166.341L168.307 29.6974H171.726L162.482 10.0128L153.165 29.6974ZM147.61 10.2824H150.746V29.6974H128.524V10.2824H131.66V26.5821H138.071V10.2824H141.208V26.5821H147.618L147.61 10.2824ZM118.673 26.5821H115.617V20.4628H118.673C120.878 20.4628 122.092 21.6952 122.092 23.5139C122.092 25.3325 120.895 26.5906 118.673 26.5906M118.831 17.4159H115.617V10.2824H112.48V29.6974H118.857C122.66 29.6974 125.288 27.485 125.288 23.5139C125.288 19.5427 122.579 17.4159 118.831 17.4159ZM95.2619 10.2824H108.019V29.6974H104.882V13.4362H98.2449V22.9747C98.2449 27.3695 96.2533 29.9969 93.5951 29.9969C92.9919 30.0207 92.3913 29.9065 91.8387 29.6631V26.5307C92.1884 26.7533 92.5953 26.8693 93.0097 26.8645C94.3131 26.8645 95.2661 25.8289 95.2661 22.8377L95.2619 10.2824ZM80.864 26.7319C77.2229 26.7319 74.4877 23.822 74.4877 19.9878C74.4877 16.1536 77.2229 13.2479 80.864 13.2479C84.5051 13.2479 87.1847 16.1835 87.1847 19.9878C87.1847 23.792 84.4752 26.7319 80.864 26.7319ZM80.864 10C75.4408 10 71.274 14.3392 71.274 19.9878C71.274 25.6364 75.4408 29.9755 80.864 29.9755C86.2872 29.9755 90.4284 25.6407 90.4284 19.9878C90.4284 14.3349 86.2573 10 80.864 10ZM62.4874 26.7319H59.1411V20.5911H62.4874C64.4832 20.5911 65.7567 21.6823 65.7567 23.5567C65.7567 25.431 64.4746 26.719 62.4874 26.719M62.8891 17.7326H59.1411V13.3592H67.6884V10.2824H56V29.6974H62.8805C66.573 29.6974 68.9662 27.1298 68.9662 23.5695C68.9662 19.8209 66.4661 17.724 62.8805 17.724" fill="#002754"/>
</svg>
